<svg id="Layer_1" data-name="Layer 1" xmlns="http://www.w3.org/2000/svg" width="60.71" height="60.32" viewBox="0 0 60.71 60.32"><defs><style>.cls-1{fill:#11283a;}.cls-2{fill:#bed8cf;}</style></defs><title>Email_Footer</title><circle class="cls-1" cx="30.35" cy="30.16" r="26.92"/><path class="cls-2" d="M31.43,33.39a1.28,1.28,0,0,1-1.79,0l-2.42-2.33-11,10.11H44.48L33.89,31Z"/><path class="cls-2" d="M17.14,19.74l0.13,0.13L17.43,20h0l13,12.51a0.08,0.08,0,0,0,.12,0L43.67,19.74h0l0.6-.6-27.7,0,0.58,0.58h0Z"/><path class="cls-2" d="M45.45,19.25a0.75,0.75,0,0,1-.3.72L45.08,20,34.75,30.14l11,10.64a0.72,0.72,0,0,0,.08-0.33V19.91A0.73,0.73,0,0,0,45.45,19.25Z"/><path class="cls-2" d="M16,20.34a1.12,1.12,0,0,1-.39-0.82,1,1,0,0,1,.08-0.34H15.56a0.73,0.73,0,0,0-.73.73V40.45c0,0.4.24,0.19,0.24,0.19L26.35,30.24Z"/></svg>