<svg id="Layer_1" data-name="Layer 1" xmlns="http://www.w3.org/2000/svg" width="60.71" height="60.32" viewBox="0 0 60.71 60.32"><defs><style>.cls-1{fill:#11283a;}.cls-2{fill:#bed8cf;}</style></defs><title>FAQ_Footer</title><circle class="cls-1" cx="30.35" cy="30.16" r="26.92"/><path class="cls-2" d="M12.94,29.12h2.75L15.91,31h-3v3.38h-2.4V25.45h5.8l0.22,1.88H12.94v1.79Z"/><path class="cls-2" d="M18.7,34.38A1.18,1.18,0,0,1,17.84,34a1.15,1.15,0,0,1-.35-0.86A1.19,1.19,0,0,1,18.7,32a1.15,1.15,0,0,1,.85.35,1.17,1.17,0,0,1,.35.86,1.15,1.15,0,0,1-.35.86A1.17,1.17,0,0,1,18.7,34.38Z"/><path class="cls-2" d="M22,34.38l3.36-8.95h2.4l3.34,8.84-2.36.24-0.65-1.9H25l-0.62,1.76H22Zm3.66-3.65h1.75L26.52,28.3Z"/><path class="cls-2" d="M34.15,34.38A1.18,1.18,0,0,1,33.29,34a1.15,1.15,0,0,1-.35-0.86A1.19,1.19,0,0,1,34.15,32a1.15,1.15,0,0,1,.85.35,1.17,1.17,0,0,1,.35.86A1.15,1.15,0,0,1,35,34,1.17,1.17,0,0,1,34.15,34.38Z"/><path class="cls-2" d="M45.92,31.53a4.54,4.54,0,0,1-.74,1.39L46,33.79l-1.47,1.28-0.88-.92a4.91,4.91,0,0,1-2.07.42A4.74,4.74,0,0,1,39.1,34a4.2,4.2,0,0,1-1.61-1.67A4.87,4.87,0,0,1,36.93,30a5,5,0,0,1,.59-2.43,4.25,4.25,0,0,1,1.65-1.67,4.73,4.73,0,0,1,2.38-.6,4.85,4.85,0,0,1,2.47.61,4.11,4.11,0,0,1,1.61,1.66,4.92,4.92,0,0,1,.56,2.34A5.3,5.3,0,0,1,45.92,31.53Zm-3.88,1L41,31.37,42.53,30l1,1.08a3.49,3.49,0,0,0,.2-1.25A2.91,2.91,0,0,0,43.13,28a2,2,0,0,0-2.66-.39,2.35,2.35,0,0,0-.79.95,3.18,3.18,0,0,0-.3,1.4,3,3,0,0,0,.57,1.9,1.88,1.88,0,0,0,1.57.74A2.15,2.15,0,0,0,42,32.52Z"/><path class="cls-2" d="M49,34.38A1.18,1.18,0,0,1,48.11,34a1.15,1.15,0,0,1-.35-0.86A1.19,1.19,0,0,1,49,32a1.15,1.15,0,0,1,.85.35,1.17,1.17,0,0,1,.35.86,1.15,1.15,0,0,1-.35.86A1.17,1.17,0,0,1,49,34.38Z"/></svg>