<svg id="Layer_1" data-name="Layer 1" xmlns="http://www.w3.org/2000/svg" width="60.71" height="60.32" viewBox="0 0 60.71 60.32"><defs><style>.cls-1{fill:#11283a;}.cls-2{fill:#bed8cf;}</style></defs><title>Phone_Footer</title><circle class="cls-1" cx="30.35" cy="30.16" r="26.92"/><path class="cls-2" d="M17,20.52a5.31,5.31,0,0,1,1.27-4.23A1.71,1.71,0,0,1,18.59,16c0.76-.45,4.19-2.45,5.71-3.09,1.72-.72,2,1.31,2,1.31s1.25,4.79,2,7.2A1.77,1.77,0,0,1,27.49,23c-0.58.33-1.06,0.68-1.45,0.89a1.74,1.74,0,0,0-.9,1.36c-0.11,1.21.15,3,2.33,6.41,0,0,2.66,4.23,4.24,5.21S35,36.25,35,36.25s1.66-1.53,3.91.93l4.19,4s1.66,1.3-.42,2.74-5.11,3.21-5.11,3.21-2.37,1.7-6.91-1.95a29.9,29.9,0,0,1-9.45-10.69C16.69,25.75,17,20.52,17,20.52Z"/></svg>